<?xml version="1.0" standalone="no"?>
<?xml-stylesheet type="text/css" href="./ressources/styles/styleLeo.css" ?>
<svg xmlns="http://www.w3.org/2000/svg" width="1260" height="768" viewBox="0 0 1260 768" xmlns:xlink="http://www.w3.org/1999/xlink">
<rect x="0" y="0" width="1260" height="768"  class="recBackground"/>




<defs>

<!-- EARTH ELEMENTS -->
<g id="earth">
  <circle cx="0" cy="0" r="300" class="oceanColor"/>
  <path id="Amerique" d="M-170,-170 l-10,50 l-20,30 l-30,30 l-5,100 l50,60 l-10,20 l5,20 l10,10 l0,80 l20,5 l20,-10 c -5,-20 80,-60
    80,-100 q -65,-50 -130,-40 l-30,-40 l10,-10 l20,-5 l5,10 l110,-60 l-20,-40 Z" class="mainLandColor"/>
  <path id="Affique" d="M0,-20 l-15,20 l-5,30 l30,50 l5,100 l20,50 l5,0 l65,20 l30,-25 l30,-10 l0,-250 l-50,-50 Z" class="mainLandColor"/>
</g>
<!-- ============== -->


<!-- MOON ELEMENTS -->
<g id="moon">
  <ellipse cx="0" cy="0" rx="800" ry="300" class="moonColor"/>
</g>
<g id="holeInMoon">
  <ellipse id="hole" cx="0" cy="0" rx="150" ry="50" class="holeInMoonColor"/>
</g>
<!-- ============== -->


<g id="star">
  <circle cx="100" cy="100" r="2" style="fill:white;stroke:none">
      <animate attributeName="r" values="2;4;2" begin="0s" dur="1s" repeatCount="indefinite" />
  </circle>
</g>


<!-- ASTRONAUTE -->
<g id="headAndBody">
  <g id="guybody">
    <rect id="body" x="-65" y="30" width="130" height="130"  rx="30" ry="30" class="legs"/>
    <rect id="ecran" x="-37.5" y="60" width="75" height="75"  rx="10" ry="10" class="headAstronaute"/>
    <use xlink:href="#ecran" transform="translate(0,15) scale(0.85 0.85)" />
    <circle id="bouton" cx="-10" cy="95" r="12" class="headAstronaute"/>
    <use xlink:href="#bouton" transform = "translate(25,35) scale(0.5 0.5)" class="stroke-3"/>
    <use xlink:href="#bouton" transform = "translate(25,50) scale(0.5 0.5)" class="stroke-3"/>
    <use xlink:href="#bouton" transform = "translate(25,65) scale(0.5 0.5)" class="stroke-3"/>
  </g>

  <g id="guyhead">
    <rect id="antenne" x="38" y="-60" width="6" height="35" class="legs"/>
    <circle id="circleAntenne" cx="40" cy="-65" r="10" class="legs"/>
    <rect id="oreilles" x="30" y="-30" width="30" height="30"  rx="10" ry="10" class="legs"/>
    <use  xlink:href="#oreilles" transform = "translate(-90,0)"/>
    <circle id = "helmet" cx="0" r="50" cy="0" class="legs" />
    <circle id = "vitre"  cx="0" r="30" cy="-2" class="vitre"/>
    <use xlink:href="#vitre" transform = "scale(0.9 0.9)" class="vitre"/>
    <ellipse id="petitBouton" cx="-35" cy="-20" rx="5" ry="8" class="headAstronaute" />
    <use xlink:href="#petitBouton" transform = "translate(70,0)"/>
  </g>
</g>

<g id="guylegs">
     <path d="M 10 150 l30 0 l15 15 l0 15 l-45 0 z" class="legs"/>
</g>





<!-- LEM AND ROCKET -->
<g id="lem-body">
  <polygon points="350 700 430 700 450 740 330 740" class="stroke-3 dark-grey"/>
  <g id="lem-leg">
    <line x1="90" x2="-10" y1="560" y2="800" class="stroke-8-Sombre" />
    <line x1="200" x2="10" y1="700" y2="755" class="stroke-8-Sombre" />
    <polygon points="60 600 75 615 35 715 20 700" class="stroke-2 light-grey" />
  </g>
  <use xlink:href="#lem-leg" />
  <use xlink:href="#lem-leg" transform="translate(780, 0) scale(-1,1)" />

  <polygon points="90 500 690 500 690 700 90 700" class="stroke-3 gold" />
  <polygon points="250 210 530 210 530 500 250 500" class="stroke-3 light-grey" />
  <circle cx="390" cy="350" r="110" class="stroke-3 dark-grey"/>
  <polygon points="355 250 425 250 440 470 340 470" class="stroke-3 white" />
  <polygon points="360 250 420 250 415 220 365 220" class="stroke-3 light-grey" />
  <polygon points="410 220 370 220 370 190 410 190" class="stroke-3 light-grey" />
  <circle cx="390" cy="170" r="25" class="stroke-3 yellow" />
</g>

<!-- definition of the LEM's ladder -->
<g id="lem-ladder">
</g>

<!-- definition of the LEM's door -->
<g id="lem-door">
  <rect x="355" y="355" width="70" height="65" rx="10" ry="10" class="stroke-3 dark-grey" />
</g>

<!-- definition of the LEM's fire (under the engine to propusle the ship) -->
<g id="lem-fire">
  <path d="M 300 400 l 40 z" class="no-stroke blue"/>
  <path d="M 360 750 q 100 -150 70 -500 l -140 0 q -30 350 70 500 z" class="no-stroke light-blue"/>
  <path d="M 370 750 q 100 -150 70 -500 l -140 0 q -30 350 70 500 z" class="no-stroke white"/>
</g>

<!-- definition of the rocket -->
<g id="rocket">
  <path id="rocket-body" d="M 0 0 q 100 150 70 500 l -140 0 q -30 -350 70 -500 z" class="stroke-8 orange"/>

  <path id="rocket-leg" d="M -76 400 l 5 100 l -40 50 q -40 -120 34 -160 z" class="stroke-8 red" />
  <use xlink:href="#rocket-leg" transform="scale(-1,1) translate(0,0)  " />
</g>

<g id="hublots">
  <circle id="hublot" cx="0" cy="150" r="30" class="stroke-5 light-blue"/>

  <use xlink:href="#hublot" transform="translate(0, 80)" />
  <use xlink:href="#hublot" transform="translate(0, 160)" />
</g>

</defs>

<!-- path defined for spaceship animation -->
<path id ="pathFusee" d="M1200,150 Q 200,150 200,0"/>
<path id="pathLEM" d="M250, 250 L 200, 600"/>
<path id="pathAstro" d="M100, 650 C250 600 500 550 700 550 L850 480"/>
<path id="fallAstro" d="M0 0 0 150"/>

<!-- Draw Earth -->
<use xlink:href="#earth" transform = "translate(1100,-30)"/>


<!--Falling astro behind moon -->
<g>
  <animate attributeName="opacity" from="0" to="0" begin="0s" dur="27.8s"/>
  <animate attributeName="opacity" from="0" to="1" begin="27.8s" dur="1s"/>
  <use xlink:href="#guylegs" transform="translate(830, 480) scale(0.3)"/>
  <use xlink:href="#headAndBody" transform='translate(850,480) scale(0.3)' />
  <use xlink:href="#guylegs" transform="translate(850,480) scale(0.3)"/>
  <animateTransform attributeName="transform" type="rotate" values="45 855 500;-90 855 500;45 855 500" keyTimes="0;0.333;0.666;1" dur="1s" begin="29s" repeatCount="5" additive="sum" fill="freeze"/>
  <animateMotion dur="5s" begin="30s" repeatCount="1" fill="freeze">
    <mpath xlink:href="#fallAstro"/>
  </animateMotion>
</g>



<!-- Draw Moon -->
<use xlink:href="#moon" transform = "translate(630, 825)"/>

<!-- Draw Holes in Moon -->
<use xlink:href="#holeInMoon" transform = "translate(100, 720) rotate(10)  scale(0.8,1.2)"/>
<use xlink:href="#holeInMoon" transform = "translate(500, 660) rotate(-8)"/>
<use xlink:href="#holeInMoon" transform = "translate(800, 750) rotate(42) scale(0.5, 2.2)"/>
<use xlink:href="#holeInMoon" transform = "translate(1200, 750) rotate(10)  scale(1.5, 1.82)"/>



<!-- drawing stars -->
<use xlink:href="#star" transform = "translate(200,300) scale(1.3,1.3)"/>
<use xlink:href="#star" transform = "translate(150,100)"/>
<use xlink:href="#star" transform = "translate(110,200)"/>
<use xlink:href="#star" transform = "translate(130,220)"/>
<use xlink:href="#star" transform = "translate(100,250)"/>
<use xlink:href="#star" transform = "translate(300,280)"/>
<use xlink:href="#star" transform = "translate(210,250) scale(1.3,1.3)"/>
<use xlink:href="#star" transform = "translate(230,300)"/>
<use xlink:href="#star" transform = "translate(400,350)"/>
<use xlink:href="#star" transform = "translate(100,50)"/>
<use xlink:href="#star" transform = "translate(100,30)"/>
<use xlink:href="#star" transform = "translate(100,83)"/>
<use xlink:href="#star" transform = "translate(40,70)"/>
<use xlink:href="#star" transform = "translate(450,60) scale(1.3,1.3)"/>
<use xlink:href="#star" transform = "translate(500,70)"/>
<use xlink:href="#star" transform = "translate(480,55)"/>
<use xlink:href="#star" transform = "translate(510,60)"/>
<use xlink:href="#star" transform = "translate(300,80)"/>
<use xlink:href="#star" transform = "translate(750,60) scale(1.3,1.3)"/>
<use xlink:href="#star" transform = "translate(290,30)"/>
<use xlink:href="#star" transform = "translate(70,300)"/>
<use xlink:href="#star" transform = "translate(680,200)"/>
<use xlink:href="#star" transform = "translate(620,210)"/>
<use xlink:href="#star" transform = "translate(600,180) scale(1.3,1.3)"/>
<use xlink:href="#star" transform = "translate(550,180)"/>
<use xlink:href="#star" transform = "translate(480,180)"/>
<use xlink:href="#star" transform = "translate(40,380)"/>
<use xlink:href="#star" transform = "translate(15,410)"/>
<use xlink:href="#star" transform = "translate(8,10) scale(1.3,1.3)"/>
<use xlink:href="#star" transform = "translate(-10,-50)"/>
<use xlink:href="#star" transform = "translate(-50,-50)"/>
<use xlink:href="#star" transform = "translate(-50,20)"/>
<use xlink:href="#star" transform = "translate(-35,100)  scale(1.3,1.3)"/>
<use xlink:href="#star" transform = "translate(-60,200)"/>
<use xlink:href="#star" transform = "translate(-25,300)"/>
<use xlink:href="#star" transform = "translate(-70,450)"/>
<use xlink:href="#star" transform = "translate(-70,380)"/>
<use xlink:href="#star" transform = "translate(790,370)  scale(1.3,1.3)"/>
<use xlink:href="#star" transform = "translate(890,320)"/>
<use xlink:href="#star" transform = "translate(910,410)"/>
<use xlink:href="#star" transform = "translate(950,300)  scale(1.3,1.3)"/>
<use xlink:href="#star" transform = "translate(1000,230)"/>
<use xlink:href="#star" transform = "translate(1050,260)  scale(1.3,1.3)"/>
<use xlink:href="#star" transform = "translate(1090,380)"/>
<use xlink:href="#star" transform = "translate(740,320)"/>
<use xlink:href="#star" transform = "translate(640,320)  scale(1.3,1.3)"/>
<use xlink:href="#star" transform = "translate(520,320)"/>
<use xlink:href="#star" transform = "translate(340,200)"/>
<use xlink:href="#star" transform = "translate(300,150)"/>
<use xlink:href="#star" transform = "translate(380,230)  scale(1.3,1.3)"/>
<use xlink:href="#star" transform = "translate(100,-50)"/>
<use xlink:href="#star" transform = "translate(350,-50)  scale(1.3,1.3)"/>
<use xlink:href="#star" transform = "translate(640,80)"/>
<use xlink:href="#star" transform = "translate(550,-20)"/>
<use xlink:href="#star" transform = "translate(770,300)  scale(1.3,1.3)"/>
<use xlink:href="#star" transform = "translate(790,230)"/>
<use xlink:href="#star" transform = "translate(220,-50)  scale(1.3,1.3)"/>
<use xlink:href="#star" transform = "translate(220,120)"/>



<!--walking astro-->
<g>
  <animate attributeName="opacity" from="0" to="0" begin="0s" dur="20s"/>
  <g>
    <use xlink:href="#guylegs" transform="translate(-20, 0) scale(0.3)"/>
    <animateTransform  attributeName="transform" type="translate" values="0 0;20 0; 0 0" keyTimes="0;0.5;1" begin="20s" dur="1.5s" repeatCount="15" additive="sum"/>
  </g>
  <use xlink:href="#headAndBody" transform='translate(0) scale(0.3)' />
  <g>
    <use xlink:href="#guylegs" transform='translate(0) scale(0.3)'/>
    <animateTransform  attributeName="transform" type="translate" values="0 0;-20 0; 0 0" keyTimes="0;0.5;1" begin="20s" dur="1.5s" repeatCount="15" additive="sum"/>
  </g>
  <animateMotion dur="8s" begin="20s" repeatCount="1" fill="freeze">
    <mpath xlink:href="#pathAstro"/>
  </animateMotion>
  <animate attributeName="opacity" from="1" to="0" begin="28s" dur="1s" fill="freeze"/>
</g>

<!-- LEM animation -->
<g>
  <use xlink:href='#lem-body' transform="translate(-100 0) scale(0.1 0.1)"/>
  <animateMotion dur="5" begin="13s" repeatCount="1" fill="freeze">
    <mpath xlink:href="#pathLEM"/>
  </animateMotion>
  <animateTransform attributeName="transform" type="scale" from="1" to="1.8" begin="13s" dur="5s" repeatCount="1" fill="freeze" additive="sum"/>
</g>




<!-- spaceship animation -->
<g>
  <use xlink:href='#rocket'/>
  <use xlink:href='#hublots'/>
  <g>
    <use xlink:href='#guyhead' transform="translate(-10, 230) scale(0.35 0.35) rotate(90)"/>
    <animateTransform  attributeName="transform" type="translate" values="0 0; -150 0" keyTimes="0;1" begin="10s" dur="2s" repeatCount="1" additive="sum" fill="freeze"/>
    <animateTransform attributeName="transform" type="rotate" values="0 0 230;0 0 230;-90 0 230" keyTimes="0;0.6;1" dur="9s" repeatCount="1" additive="sum" fill="freeze"/>

  </g>
  <path d="M-32 225 c0 50 65 50 65 0 l0 90 c0 -50 -65 -50 -65 0  Z" class="orange"/>
  <path d="M-32 305 c0 50 65 50 65 0 l0 150 l-65 0 Z" class="orange"/>
  <path id="hub" d="M-32 225 c0 50 65 50 65 0 l -5 0 c0 45 -55 45 -55 0 Z" class="noir"/>
  <use xlink:href="#hub" y="80"/>
  <use xlink:href="#hub" y="90" transform="rotate(180 0 315)"/>

  <!--tentative d'utilisation de la classe freeze, sans grand succès-->
  <animateMotion dur="9s" repeatCount="1" fill="freeze">
    <mpath xlink:href="#pathFusee" />
  </animateMotion>
  <animateTransform attributeName="transform" type="translate" values=" 0 -250; 0 -250;0 0" keyTimes="0;0.6;1" begin="0" dur="10s" repeatCount="1" class="freeze" additive="sum"/>
  <animateTransform attributeName="transform" type="rotate" values="-90 0 250;-90 0 250;0 0 250" keyTimes="0;0.6;1" begin="0" dur="9s" repeatCount="1" class="freeze" additive="sum"/>
  <animateTransform attributeName="transform" type="scale" from="0" to="0.6" begin="0s" dur="9s" repeatCount="1" fill="freeze" additive="sum"/>
</g>



<!--
<g id="fullBody">
  <use xlink:href="#guylegs" transform="translate(-50, 0)"/>
  <use xlink:href="#headAndBody"/>
  <use xlink:href="#guylegs"/>
</g>
-->
</svg>
