<?xml version="1.0" standalone="no"?>
<?xml-stylesheet type="text/css" href="style.css" ?>
<svg xmlns="http://www.w3.org/2000/svg" width="900" height="900" viewBox="0 0 900 900" xmlns:xlink="http://www.w3.org/1999/xlink" >
<rect x="0" y="0" width="1260" height="768" style="fill:#e5e5e5; stroke:none" />

<!-- LEM by Antoine Bouabana for M4105C3 (inspired by Leslieclavin's draw : https://www.kisspng.com/png-apollo-program-apollo-11-lunar-lander-apollo-lunar-1490655/) -->
<!-- <defs> -->



  <!-- definition of the LEM's body -->
<defs>
  <g id="lem-body">
    <polygon points="350 700 430 700 450 740 330 740" class="stroke-3 dark-grey"/>
    <g id="lem-leg">
      <line x1="90" x2="-10" y1="560" y2="800" class="stroke-8 transparent" />
      <line x1="200" x2="10" y1="700" y2="755" class="stroke-8 transparent" />
      <polygon points="60 600 75 615 35 715 20 700" class="stroke-2 light-grey" />
    </g>
    <use xlink:href="#lem-leg" />
    <use xlink:href="#lem-leg" transform="translate(780, 0) scale(-1,1)" />

    <polygon points="90 500 690 500 690 700 90 700" class="stroke-3 gold" />
    <polygon points="250 210 530 210 530 500 250 500" class="stroke-3 light-grey" />
    <circle cx="390" cy="350" r="110" class="stroke-3 dark-grey"/>
    <polygon points="355 250 425 250 440 470 340 470" class="stroke-3 white" />
    <polygon points="360 250 420 250 415 220 365 220" class="stroke-3 light-grey" />
    <polygon points="410 220 370 220 370 190 410 190" class="stroke-3 light-grey" />
    <circle cx="390" cy="170" r="25" class="stroke-3 yellow" />

  </g>

  <!-- definition of the LEM's ladder -->
  <g id="lem-ladder">
  </g>

  <!-- definition of the LEM's door -->
  <g id="lem-door">
    <rect x="355" y="355" width="70" height="65" rx="10" ry="10" class="stroke-3 dark-grey" />
  </g>

  <!-- definition of the LEM's fire (under the engine to propusle the ship) -->
  <g id="lem-fire">
  </g>

  <!-- definition of the LEM's fire (under the engine to propusle the ship) -->
  <g id="rocket">
    <path class="stroke-3 orange" />
    <circle id="hublot" cx="390" cy="350" r="30" class="stroke-8 light-blue"/>
    <use xlink:href="#hublot" />
    <use xlink:href="#hublot" transform="translate(0, 80)" />
    <use xlink:href="#hublot" transform="translate(0, 160)" />
    <path id="rocket-leg" class="stroke-3 red" />
    <use xlink:href="#rocket-leg" />
    <use xlink:href="#rocket-leg" transform="translate(160, 0) scale(-1, 1)" />
  </g>

</defs>

<use xlink:href="#rocket"/>

<!-- Display LEM's elements on the screen (into the viewport) -->
<!-- <g id="LEM" transform="translate(-10, -70) ">
  <use xlink:href="#lem-body"/>
  <use xlink:href="#lem-ladder"/>
  <use xlink:href="#lem-light"/>
  <use xlink:href="#lem-fire"/>
</g> -->


</svg>
